# xmcd
#
# Track frame offsets: 
#        150
#        16841
#        32440
#        48134
#        67943
#        89331
#        106687
#        121196
#        141997
#        166255
#        184825
#        195881
#        214547
#        232915
#
# Disc length: 3350 seconds
#
# Revision: 1
# Processed by: cddbd v1.5.2PL0 Copyright (c) Steve Scherf et al.
# Submitted via: ExactAudioCopy v0.99pb4
#
DISCID=a10d140e
DTITLE=André Taylor - Playing Hard - Live At Kingston Mines
DYEAR=2001
DGENRE=Blues
TTITLE0=Everyday I Have The Blues
TTITLE1=I'm Ready
TTITLE2=Since You Ain't With Me
TTITLE3=Five Long Years
TTITLE4=Got My Mojo Working
TTITLE5=Born Under A Bad Sign
TTITLE6=Sure As You Live
TTITLE7=She's A Sweet One
TTITLE8=Eyesight To The Blind
TTITLE9=Hoochie Coochie Man
TTITLE10=You Upset Me
TTITLE11=I Been Down So Long
TTITLE12=My Girl
TTITLE13=Pride and Joy
EXTD=
EXTT0=
EXTT1=
EXTT2=
EXTT3=
EXTT4=
EXTT5=
EXTT6=
EXTT7=
EXTT8=
EXTT9=
EXTT10=
EXTT11=
EXTT12=
EXTT13=
PLAYORDER=
